# xmcd
#
# Track frame offsets:
#	150
#	18022
#	38930
#	57222
#	79895
#	98800
#	118842
#	139255
#	161165
#	177597
#	196707
#	213982
#	234710
#	246185
#	262557
#
# Disc length: 3710 seconds
#
# Revision: 2
# Processed by: cddbd v1.5.2PL0 Copyright (c) Steve Scherf et al.
# Submitted via: audiograbber 1.83.01
#
DISCID=c90e7c0f
DTITLE=Elton John - Peachtree Road
DYEAR=2004
DGENRE=Pop
TTITLE0=Weight Of The World
TTITLE1=Porch Swing In Tupelo
TTITLE2=Answer In The Sky
TTITLE3=Turn The Lights Out When You Leave
TTITLE4=My Elusive Drug
TTITLE5=They Call Her The Cat
TTITLE6=Freaks In Love
TTITLE7=All That I'm Allowed (I'm Thankful)
TTITLE8=I Stop And I Breathe
TTITLE9=Too Many Tears
TTITLE10=It's Getting Dark In Here
TTITLE11=I Can't Keep This From You
TTITLE12=The Letter
TTITLE13=Merry Christmas Maggie Thatcher
TTITLE14=Electricity
EXTD=
EXTT0=
EXTT1=
EXTT2=
EXTT3=
EXTT4=
EXTT5=
EXTT6=
EXTT7=
EXTT8=
EXTT9=
EXTT10=
EXTT11=
EXTT12=
EXTT13=
EXTT14=
PLAYORDER=
